<svg height="512" viewBox="0 0 128 128" width="512" xmlns="http://www.w3.org/2000/svg"><g><g><path d="m73.938 75.69a1.743 1.743 0 0 1 -1.238-.512l-5.157-5.157a1.75 1.75 0 0 1 2.475-2.475l5.157 5.154a1.75 1.75 0 0 1 -1.237 2.987z" fill="#66ba00"/><circle cx="50.439" cy="50.442" fill="#c5dcf7" r="25.938"/><path d="m101.445 101.447a7 7 0 0 1 -10.082-.2l-21.504-23.227 8.158-8.158 23.233 21.5a7 7 0 0 1 .195 10.085z" fill="#a6d12b"/><circle cx="50.439" cy="50.442" fill="#e9f1f8" r="18.341"/><path d="m39.16 52.191a1.749 1.749 0 0 1 -1.75-1.75 13.044 13.044 0 0 1 13.028-13.028 1.75 1.75 0 0 1 0 3.5 9.54 9.54 0 0 0 -9.528 9.528 1.749 1.749 0 0 1 -1.75 1.75z" fill="#fff"/></g><g fill="#001c5b"><path d="m47.82 26.385a1.744 1.744 0 0 0 .18-.009c.236-.023.475-.044.713-.061a1.75 1.75 0 1 0 -.24-3.492c-.274.019-.547.043-.821.071a1.75 1.75 0 0 0 .172 3.491z"/><path d="m80.88 87.348a1.75 1.75 0 1 0 -2.57 2.375l.508.55a1.75 1.75 0 1 0 2.571-2.373z"/><path d="m102.441 90.08-23.233-21.5a1.75 1.75 0 0 0 -2.426.047l-2.841 2.841-2.726-2.728a27.687 27.687 0 0 0 -15.385-45.46 1.75 1.75 0 0 0 -.678 3.434 24.157 24.157 0 1 1 -12.79.923 1.75 1.75 0 1 0 -1.166-3.3 27.687 27.687 0 1 0 27.544 46.878l2.726 2.726-2.841 2.841a1.749 1.749 0 0 0 -.047 2.426l5.678 6.135a1.75 1.75 0 0 0 2.568-2.377l-4.534-4.9 5.776-5.776 22 20.358a5.248 5.248 0 0 1 .146 7.562 5.3 5.3 0 0 1 -3.812 1.536 5.207 5.207 0 0 1 -3.75-1.682l-7.262-7.847a1.75 1.75 0 0 0 -2.569 2.377l7.263 7.847a8.675 8.675 0 0 0 6.251 2.8h.174a8.747 8.747 0 0 0 5.936-15.167z"/><path d="m56.974 65.7a1.75 1.75 0 0 0 1.379 3.217 20.1 20.1 0 1 0 -7.912 1.618 1.75 1.75 0 0 0 0-3.5 16.576 16.576 0 1 1 6.533-1.335z"/><path d="m37.413 50.441a1.75 1.75 0 0 0 3.5 0 9.539 9.539 0 0 1 9.528-9.528 1.75 1.75 0 0 0 0-3.5 13.044 13.044 0 0 0 -13.028 13.028z"/></g></g></svg>